<svg id="Layer_1" data-name="Layer 1" xmlns="http://www.w3.org/2000/svg" viewBox="0 0 160 160"><title>Blob 3</title><path d="M141.17,38.45c-6.5-6.5-17.17-11.4-26.51-11a49.07,49.07,0,0,0-8.75,1.18,70.76,70.76,0,0,0-12.61-6C87,20.26,80.54,19.45,73.78,18.79,63,17.72,51.5,19.11,41,21.51,19.39,26.42,7,45,5.55,66.11a63,63,0,0,0,.56,12.27c0,.36-.05.73-.07,1.1-.67,20.07,4.79,41.94,20.38,55.68A67.72,67.72,0,0,0,89.21,150c16.32-4.25,31.78-15.08,42.4-28,7.53-9.2,12.91-18.58,16.21-30.14C150.3,83.13,151,73.85,152.16,65S147.16,44.44,141.17,38.45Z"/></svg>