<svg id="Layer_1" data-name="Layer 1" xmlns="http://www.w3.org/2000/svg" viewBox="0 0 160 160"><title>Blob 2</title><path d="M73.13,140.66a174.61,174.61,0,0,0,28.42-10.79c7.13-3.42,13.1-8.35,19.16-13.21,3.05-1.57,6.3-2.68,9.18-4.59a53.74,53.74,0,0,0,11.3-9.5A30.86,30.86,0,0,0,150,92.65c9.74-17.87,4.51-38-12.17-49.36a211.64,211.64,0,0,0-19.52-11.84c-8.84-4.71-18.25-9.85-28-12.07C67.91,14.32,43.45,20,27.53,37.1c-8.34,9-15.71,18.7-19.86,30.32-4.87,13.68-2,27.74,3.42,40.65C21.21,132,47.26,147.84,73.13,140.66Z"/></svg>